<?xml version="1.0" standalone="no"?>
<!DOCTYPE svg PUBLIC "-//W3C//DTD SVG 20010904//EN"
 "http://www.w3.org/TR/2001/REC-SVG-20010904/DTD/svg10.dtd">
<svg version="1.0" xmlns="http://www.w3.org/2000/svg"
 width="512.000000pt" height="512.000000pt" viewBox="0 0 512.000000 512.000000"
 preserveAspectRatio="xMidYMid meet">
<metadata>
Created by potrace 1.14, written by Peter Selinger 2001-2017
</metadata>
<g transform="translate(0.000000,512.000000) scale(0.100000,-0.100000)"
fill="#000000" stroke="none">
<path d="M3023 5108 c-12 -6 -27 -24 -32 -41 -15 -42 -14 -382 1 -410 27 -52
88 -63 135 -23 l27 24 1 183 c1 101 -2 198 -7 214 -15 56 -70 80 -125 53z"/>
<path d="M1520 4693 c-65 -21 -89 -63 -66 -116 20 -47 364 -384 400 -393 58
-14 116 44 102 102 -12 47 -389 421 -418 413 -2 0 -10 -3 -18 -6z"/>
<path d="M4578 4691 c-32 -12 -396 -382 -401 -407 -11 -58 49 -115 105 -101
13 4 97 79 185 167 208 207 223 224 223 260 0 52 -65 100 -112 81z"/>
<path d="M2885 4423 c-151 -21 -278 -60 -415 -127 -72 -35 -193 -108 -210
-126 -3 -3 -21 -17 -40 -31 -138 -104 -279 -278 -369 -457 -65 -130 -130 -343
-131 -428 0 -19 -12 -24 -95 -44 -313 -72 -537 -241 -727 -551 -48 -77 -112
-275 -124 -381 -13 -116 -7 -276 12 -349 6 -26 9 -51 5 -56 -3 -5 -33 -15 -65
-22 -116 -26 -281 -102 -356 -165 -253 -215 -372 -463 -365 -768 7 -364 214
-679 549 -833 41 -19 81 -35 90 -35 8 0 17 -4 20 -9 3 -4 22 -11 43 -14 21 -3
49 -9 63 -14 14 -4 790 -8 1725 -9 1615 -2 1705 -1 1792 16 664 133 1021 858
719 1459 -103 207 -269 371 -468 465 -158 75 -280 101 -460 100 -60 -1 -108 0
-108 0 0 1 36 40 81 86 192 203 317 454 365 735 20 118 12 375 -14 490 -61
261 -164 460 -334 644 -300 324 -752 486 -1183 424z"/>
<path d="M4644 3142 c-51 -41 -52 -110 -2 -141 33 -21 387 -23 429 -3 39 19
56 70 35 109 -24 47 -49 52 -253 52 -163 0 -191 -2 -209 -17z"/>
</g>
</svg>
